<svg width="25" height="33" viewBox="0 0 25 33" fill="none" xmlns="http://www.w3.org/2000/svg">
<path fill-rule="evenodd" clip-rule="evenodd" d="M12.1351 26.5977C9.01458 26.5726 6.50609 24.0728 6.53171 21.014C6.55734 17.9552 9.10781 15.496 12.228 15.5214C15.3485 15.5465 17.857 18.0466 17.8314 21.1051C17.8057 24.1639 15.2553 26.6231 12.1351 26.5977ZM24.3605 21.0509C24.5137 18.1096 23.4852 13.2952 20.9668 9.35998C20.9001 9.25791 20.7864 9.29826 20.8106 9.40621C20.9786 10.0061 21.0189 11.0899 20.046 11.0258C18.3223 10.9125 20.1062 7.29629 16.3206 4.78769C16.2448 4.73745 16.1543 4.80452 16.1958 4.88469C16.4553 5.36834 16.6096 6.8765 16.0098 7.39062C15.5287 7.80293 14.6455 7.69204 13.7963 6.33379C12.3809 4.07049 12.9183 1.65033 13.88 0.138703C13.9522 0.0256713 13.8533 -0.0192207 13.771 0.00750071C8.56315 1.69228 7.52344 7.70834 6.41531 9.9027C6.22939 10.2704 6.06829 10.4628 5.75043 10.4419C4.80205 10.3797 5.48519 8.39614 5.81368 7.70566C5.85975 7.6084 5.7458 7.55469 5.68446 7.61748C3.00341 10.3642 0.576431 15.0404 0.115187 19.3858C0.129907 19.283 0.0721154 19.745 0.0440373 20.0833C0.0440373 20.0835 0.0440373 20.0841 0.0440373 20.0841C0.0331332 20.2166 0.0241373 20.3494 0.016777 20.4825C0.00914415 20.6415 0.00178387 20.8007 0.000420857 20.9613C-0.0549175 27.5556 5.35407 32.9453 12.0814 32.9996C18.8087 33.0538 24.307 27.7523 24.3627 21.158C24.3629 21.1219 24.3605 21.0867 24.3605 21.0509Z" fill="#EF4E23"/>
</svg>
